<svg id="visual" viewBox="0 0 900 600" width="900" height="600" xmlns="http://www.w3.org/2000/svg" xmlns:xlink="http://www.w3.org/1999/xlink" version="1.1"><g stroke-width="1" stroke-linejoin="bevel"><path d="M419 274L526 211L373 231Z" fill="#030303" stroke="#030303"></path><path d="M526 211L468 102L373 231Z" fill="#030303" stroke="#030303"></path><path d="M468 102L367 105L373 231Z" fill="#040404" stroke="#040404"></path><path d="M367 105L319 202L373 231Z" fill="#030303" stroke="#030303"></path><path d="M373 231L263 287L419 274Z" fill="#050505" stroke="#050505"></path><path d="M419 274L538 328L526 211Z" fill="#050505" stroke="#050505"></path><path d="M598 307L612 233L526 211Z" fill="#020202" stroke="#020202"></path><path d="M526 211L617 73L468 102Z" fill="#020202" stroke="#020202"></path><path d="M538 328L598 307L526 211Z" fill="#040404" stroke="#040404"></path><path d="M591 0L475 0L468 102Z" fill="#040404" stroke="#040404"></path><path d="M468 102L391 0L367 105Z" fill="#010101" stroke="#010101"></path><path d="M226 266L263 287L319 202Z" fill="#040404" stroke="#040404"></path><path d="M319 202L263 287L373 231Z" fill="#020202" stroke="#020202"></path><path d="M419 274L428 433L538 328Z" fill="#030303" stroke="#030303"></path><path d="M475 0L391 0L468 102Z" fill="#020202" stroke="#020202"></path><path d="M367 105L260 91L319 202Z" fill="#040404" stroke="#040404"></path><path d="M612 233L617 73L526 211Z" fill="#010101" stroke="#010101"></path><path d="M277 0L260 91L367 105Z" fill="#010101" stroke="#010101"></path><path d="M212 176L226 266L319 202Z" fill="#050505" stroke="#050505"></path><path d="M270 489L335 402L166 411Z" fill="#010101" stroke="#010101"></path><path d="M263 287L335 402L419 274Z" fill="#010101" stroke="#010101"></path><path d="M538 328L637 403L598 307Z" fill="#010101" stroke="#010101"></path><path d="M335 402L428 433L419 274Z" fill="#020202" stroke="#020202"></path><path d="M260 91L212 176L319 202Z" fill="#050505" stroke="#050505"></path><path d="M617 73L591 0L468 102Z" fill="#010101" stroke="#010101"></path><path d="M428 433L508 438L538 328Z" fill="#010101" stroke="#010101"></path><path d="M612 233L679 112L617 73Z" fill="#050505" stroke="#050505"></path><path d="M617 73L703 0L591 0Z" fill="#010101" stroke="#010101"></path><path d="M717 163L679 112L612 233Z" fill="#020202" stroke="#020202"></path><path d="M391 0L277 0L367 105Z" fill="#030303" stroke="#030303"></path><path d="M260 91L212 76L212 176Z" fill="#050505" stroke="#050505"></path><path d="M277 0L212 76L260 91Z" fill="#040404" stroke="#040404"></path><path d="M676 394L702 281L598 307Z" fill="#030303" stroke="#030303"></path><path d="M598 307L702 281L612 233Z" fill="#050505" stroke="#050505"></path><path d="M702 281L717 163L612 233Z" fill="#050505" stroke="#050505"></path><path d="M508 438L637 403L538 328Z" fill="#010101" stroke="#010101"></path><path d="M335 402L398 474L428 433Z" fill="#040404" stroke="#040404"></path><path d="M428 433L480 536L508 438Z" fill="#030303" stroke="#030303"></path><path d="M728 470L676 394L637 403Z" fill="#050505" stroke="#050505"></path><path d="M615 508L637 403L508 438Z" fill="#010101" stroke="#010101"></path><path d="M637 403L676 394L598 307Z" fill="#050505" stroke="#050505"></path><path d="M212 176L137 232L226 266Z" fill="#030303" stroke="#030303"></path><path d="M166 411L335 402L263 287Z" fill="#050505" stroke="#050505"></path><path d="M335 402L270 489L398 474Z" fill="#010101" stroke="#010101"></path><path d="M104 125L137 232L212 176Z" fill="#030303" stroke="#030303"></path><path d="M778 101L703 0L679 112Z" fill="#020202" stroke="#020202"></path><path d="M679 112L703 0L617 73Z" fill="#020202" stroke="#020202"></path><path d="M277 0L178 0L212 76Z" fill="#010101" stroke="#010101"></path><path d="M212 76L104 125L212 176Z" fill="#000000" stroke="#000000"></path><path d="M398 474L480 536L428 433Z" fill="#010101" stroke="#010101"></path><path d="M166 411L263 287L226 266Z" fill="#030303" stroke="#030303"></path><path d="M398 474L429 600L480 536Z" fill="#050505" stroke="#050505"></path><path d="M717 163L778 101L679 112Z" fill="#040404" stroke="#040404"></path><path d="M825 235L778 101L717 163Z" fill="#020202" stroke="#020202"></path><path d="M789 290L717 163L702 281Z" fill="#050505" stroke="#050505"></path><path d="M114 0L104 125L212 76Z" fill="#020202" stroke="#020202"></path><path d="M131 411L166 411L137 232Z" fill="#020202" stroke="#020202"></path><path d="M137 232L166 411L226 266Z" fill="#020202" stroke="#020202"></path><path d="M480 536L615 508L508 438Z" fill="#010101" stroke="#010101"></path><path d="M772 394L702 281L676 394Z" fill="#030303" stroke="#030303"></path><path d="M772 394L789 290L702 281Z" fill="#020202" stroke="#020202"></path><path d="M728 470L772 394L676 394Z" fill="#030303" stroke="#030303"></path><path d="M900 284L825 235L789 290Z" fill="#030303" stroke="#030303"></path><path d="M789 290L825 235L717 163Z" fill="#020202" stroke="#020202"></path><path d="M62 287L131 411L137 232Z" fill="#030303" stroke="#030303"></path><path d="M166 411L178 515L270 489Z" fill="#050505" stroke="#050505"></path><path d="M178 0L114 0L212 76Z" fill="#020202" stroke="#020202"></path><path d="M615 508L728 470L637 403Z" fill="#020202" stroke="#020202"></path><path d="M0 197L62 287L137 232Z" fill="#040404" stroke="#040404"></path><path d="M0 197L137 232L104 125Z" fill="#010101" stroke="#010101"></path><path d="M312 600L429 600L398 474Z" fill="#020202" stroke="#020202"></path><path d="M480 536L506 600L615 508Z" fill="#010101" stroke="#010101"></path><path d="M615 508L673 600L728 470Z" fill="#010101" stroke="#010101"></path><path d="M312 600L398 474L270 489Z" fill="#050505" stroke="#050505"></path><path d="M429 600L506 600L480 536Z" fill="#040404" stroke="#040404"></path><path d="M900 72L806 0L778 101Z" fill="#040404" stroke="#040404"></path><path d="M778 101L806 0L703 0Z" fill="#000000" stroke="#000000"></path><path d="M74 515L178 515L131 411Z" fill="#050505" stroke="#050505"></path><path d="M131 411L178 515L166 411Z" fill="#010101" stroke="#010101"></path><path d="M173 600L312 600L270 489Z" fill="#040404" stroke="#040404"></path><path d="M506 600L626 600L615 508Z" fill="#040404" stroke="#040404"></path><path d="M0 92L0 197L104 125Z" fill="#050505" stroke="#050505"></path><path d="M62 287L0 371L131 411Z" fill="#010101" stroke="#010101"></path><path d="M900 284L900 165L825 235Z" fill="#020202" stroke="#020202"></path><path d="M825 235L900 165L778 101Z" fill="#010101" stroke="#010101"></path><path d="M0 197L0 296L62 287Z" fill="#050505" stroke="#050505"></path><path d="M114 0L0 92L104 125Z" fill="#050505" stroke="#050505"></path><path d="M900 402L789 290L772 394Z" fill="#050505" stroke="#050505"></path><path d="M900 402L900 284L789 290Z" fill="#040404" stroke="#040404"></path><path d="M626 600L673 600L615 508Z" fill="#050505" stroke="#050505"></path><path d="M823 491L772 394L728 470Z" fill="#040404" stroke="#040404"></path><path d="M900 165L900 72L778 101Z" fill="#040404" stroke="#040404"></path><path d="M761 600L823 491L728 470Z" fill="#020202" stroke="#020202"></path><path d="M0 296L0 371L62 287Z" fill="#040404" stroke="#040404"></path><path d="M74 515L173 600L178 515Z" fill="#040404" stroke="#040404"></path><path d="M178 515L173 600L270 489Z" fill="#030303" stroke="#030303"></path><path d="M114 0L0 0L0 92Z" fill="#020202" stroke="#020202"></path><path d="M0 460L74 515L131 411Z" fill="#020202" stroke="#020202"></path><path d="M900 72L900 0L806 0Z" fill="#050505" stroke="#050505"></path><path d="M823 491L900 402L772 394Z" fill="#050505" stroke="#050505"></path><path d="M673 600L761 600L728 470Z" fill="#050505" stroke="#050505"></path><path d="M823 491L900 531L900 402Z" fill="#040404" stroke="#040404"></path><path d="M0 371L0 460L131 411Z" fill="#020202" stroke="#020202"></path><path d="M74 515L77 600L173 600Z" fill="#030303" stroke="#030303"></path><path d="M0 600L77 600L74 515Z" fill="#030303" stroke="#030303"></path><path d="M900 600L900 531L823 491Z" fill="#040404" stroke="#040404"></path><path d="M0 460L0 600L74 515Z" fill="#030303" stroke="#030303"></path><path d="M761 600L900 600L823 491Z" fill="#030303" stroke="#030303"></path></g></svg>